<svg xmlns="http://www.w3.org/2000/svg" viewBox="0 0 698.98 674.61"><defs><style>.cls-1{fill:#f2dddd;}.cls-1,.cls-2,.cls-5{stroke:#b1404a;}.cls-1,.cls-2{stroke-width:20px;}.cls-2,.cls-5{fill:none;stroke-miterlimit:10;}.cls-3{fill:#f2b0ae;}.cls-4{fill:#b1404a;}.cls-5{stroke-width:13.45px;}.cls-6{fill:#eaeaa2;}</style></defs><g id="Layer_2" data-name="Layer 2"><g id="Layer_1-2" data-name="Layer 1"><g id="cherry-blossom"><g id="petals"><g id="petal-top-left"><path class="cls-1" d="M288.42,384.53Q67,481,12.11,303.8c-5.91-19.06,1-45.81,15.43-59.61q134-128.26,280.77,63.52C324.23,328.49,312.42,374.08,288.42,384.53Z"/><g id="bloom"><g id="nodes"><line class="cls-2" x1="162.79" y1="315.34" x2="291.02" y2="347.37"/><circle class="cls-3" cx="156.93" cy="313.88" r="24.85"/><path class="cls-4" d="M163.56,289.93a24.85,24.85,0,1,0,17.32,30.58A24.85,24.85,0,0,0,163.56,289.93Zm8.57,28.31a15.78,15.78,0,1,1-11-19.41A15.76,15.76,0,0,1,172.13,318.24Z"/></g></g><g id="bloom-2" data-name="bloom"><g id="nodes-2" data-name="nodes"><line class="cls-5" x1="237.5" y1="292.99" x2="301.13" y2="355.05"/><circle class="cls-6" cx="234.59" cy="290.15" r="16.71"/><path class="cls-4" d="M246.56,278.49a16.71,16.71,0,1,0-.31,23.63A16.72,16.72,0,0,0,246.56,278.49Zm-4.62,19.35a10.61,10.61,0,1,1,.19-15A10.6,10.6,0,0,1,241.94,297.84Z"/></g></g><g id="bloom-3" data-name="bloom"><g id="nodes-3" data-name="nodes"><line class="cls-5" x1="215.93" y1="368.64" x2="302.99" y2="350.71"/><circle class="cls-6" cx="211.95" cy="369.46" r="16.71"/><path class="cls-4" d="M209,353a16.71,16.71,0,1,0,19.41,13.5A16.72,16.72,0,0,0,209,353Zm13.44,14.67a10.61,10.61,0,1,1-12.32-8.57A10.61,10.61,0,0,1,222.43,367.68Z"/></g></g></g><g id="petal-bottom-left"><path class="cls-1" d="M351.69,437.94Q357.81,679.4,173,663.64C153.14,662,131,645.48,123.58,626.93Q55.08,454.58,288,390.63C313.22,383.7,351,411.77,351.69,437.94Z"/><g id="bloom-4" data-name="bloom"><line class="cls-2" x1="238.77" y1="523.43" x2="313.12" y2="418.52"/><g id="nodes-4" data-name="nodes"><circle class="cls-3" cx="241.94" cy="523.43" r="24.85"/><path class="cls-4" d="M248.57,499.48a24.85,24.85,0,1,0,17.32,30.58A24.84,24.84,0,0,0,248.57,499.48Zm8.57,28.31a15.78,15.78,0,1,1-11-19.42A15.78,15.78,0,0,1,257.14,527.79Z"/></g></g><g id="bloom-5" data-name="bloom"><g id="nodes-5" data-name="nodes"><line class="cls-5" x1="246.42" y1="448.99" x2="323.93" y2="405.49"/><circle class="cls-6" cx="242.87" cy="450.98" r="16.71"/><path class="cls-4" d="M235.06,436.2a16.72,16.72,0,1,0,22.59,7A16.72,16.72,0,0,0,235.06,436.2Zm17.26,9.9A10.61,10.61,0,1,1,238,441.67,10.61,10.61,0,0,1,252.32,446.1Z"/></g></g><g id="bloom-6" data-name="bloom"><g id="nodes-6" data-name="nodes"><line class="cls-5" x1="312.89" y1="491.06" x2="320.29" y2="402.48"/><circle class="cls-6" cx="312.56" cy="495.11" r="16.71"/><path class="cls-4" d="M295.94,493.3a16.71,16.71,0,1,0,18.43-14.81A16.71,16.71,0,0,0,295.94,493.3Zm17.87-8.76a10.61,10.61,0,1,1-11.7,9.4A10.61,10.61,0,0,1,313.81,484.54Z"/></g></g></g><g id="petal-bottom-right"><path class="cls-1" d="M426.67,387q232.92,64,164.4,236.3c-7.37,18.55-29.55,35-49.44,36.71Q356.85,675.73,363,434.28C363.62,408.11,401.43,380,426.67,387Z"/><g id="bloom-7" data-name="bloom"><line class="cls-2" x1="474.92" y1="518.71" x2="394.83" y2="418.52"/><g id="nodes-7" data-name="nodes"><circle class="cls-3" cx="481.61" cy="527.08" r="24.85"/><path class="cls-4" d="M488.24,503.13a24.85,24.85,0,1,0,17.32,30.59A24.86,24.86,0,0,0,488.24,503.13Zm8.58,28.31a15.78,15.78,0,1,1-11-19.41A15.79,15.79,0,0,1,496.82,531.44Z"/></g></g><g id="bloom-8" data-name="bloom"><g id="nodes-8" data-name="nodes"><line class="cls-5" x1="402.83" y1="493.09" x2="388.36" y2="405.39"/><circle class="cls-6" cx="403.49" cy="497.1" r="16.71"/><path class="cls-4" d="M386.94,499.4a16.71,16.71,0,1,0,14.25-18.85A16.71,16.71,0,0,0,386.94,499.4Zm15.19-12.85a10.61,10.61,0,1,1-9.05,12A10.62,10.62,0,0,1,402.13,486.55Z"/></g></g><g id="bloom-9" data-name="bloom"><g id="nodes-9" data-name="nodes"><line class="cls-5" x1="465.04" y1="444.94" x2="384.29" y2="407.78"/><circle class="cls-6" cx="468.74" cy="446.64" r="16.71"/><path class="cls-4" d="M461.37,461.64a16.71,16.71,0,1,0-7.64-22.37A16.72,16.72,0,0,0,461.37,461.64Zm-2.14-19.78a10.61,10.61,0,1,1,4.85,14.2A10.6,10.6,0,0,1,459.23,441.86Z"/></g></g></g><g id="petal-top-right"><path class="cls-1" d="M395.89,308.24Q513.56,97.31,664.59,205c16.25,11.58,27,37,23.86,56.76Q659.67,444.95,426.64,381.4C401.38,374.51,383.14,331.1,395.89,308.24Z"/><g id="bloom-10" data-name="bloom"><line class="cls-2" x1="550.24" y1="286.9" x2="417.27" y2="339.38"/><g id="nodes-10" data-name="nodes"><circle class="cls-3" cx="559.68" cy="283.17" r="24.85"/><path class="cls-4" d="M566.31,259.22a24.85,24.85,0,1,0,17.32,30.58A24.85,24.85,0,0,0,566.31,259.22Zm8.57,28.31a15.78,15.78,0,1,1-11-19.41A15.78,15.78,0,0,1,574.88,287.53Z"/></g></g><g id="bloom-11" data-name="bloom"><g id="nodes-11" data-name="nodes"><line class="cls-5" x1="490.19" y1="352.73" x2="401.8" y2="343.37"/><circle class="cls-6" cx="494.24" cy="353.16" r="16.71"/><path class="cls-4" d="M492.06,369.73A16.71,16.71,0,1,0,477.67,351,16.71,16.71,0,0,0,492.06,369.73Zm-8.36-18.05a10.61,10.61,0,1,1,9.14,11.9A10.63,10.63,0,0,1,483.7,351.68Z"/></g></g><g id="bloom-12" data-name="bloom"><g id="nodes-12" data-name="nodes"><line class="cls-5" x1="460.31" y1="279.96" x2="403.03" y2="347.93"/><circle class="cls-6" cx="462.92" cy="276.85" r="16.71"/><path class="cls-4" d="M475.43,287.94a16.71,16.71,0,1,0-23.6,1.42A16.71,16.71,0,0,0,475.43,287.94Zm-19.64-3.19a10.61,10.61,0,1,1,15-.9A10.61,10.61,0,0,1,455.79,284.75Z"/></g></g></g><g id="petal-top"><path class="cls-1" d="M314.21,305.6Q165.35,115.4,323.1,17.87c17-10.49,44.6-10.49,61.58,0q157.76,97.53,8.89,287.73C377.43,326.21,330.35,326.21,314.21,305.6Z"/><g id="bloom-13" data-name="bloom"><line class="cls-2" x1="355.16" y1="305.65" x2="351.89" y2="168.58"/><g id="nodes-13" data-name="nodes"><circle class="cls-3" cx="353.52" cy="162.26" r="24.85"/><path class="cls-4" d="M360.16,138.31a24.85,24.85,0,1,0,17.31,30.59A24.87,24.87,0,0,0,360.16,138.31Zm8.57,28.31a15.78,15.78,0,1,1-11-19.41A15.78,15.78,0,0,1,368.73,166.62Z"/></g></g><g id="bloom-14" data-name="bloom"><g id="nodes-14" data-name="nodes"><line class="cls-5" x1="394.55" y1="231.84" x2="354.3" y2="311.09"/><circle class="cls-6" cx="396.39" cy="228.22" r="16.71"/><path class="cls-4" d="M411.09,236.16a16.71,16.71,0,1,0-22.64,6.76A16.71,16.71,0,0,0,411.09,236.16Zm-19.84,1.37a10.61,10.61,0,1,1,14.37-4.29A10.62,10.62,0,0,1,391.25,237.53Z"/></g></g><g id="bloom-15" data-name="bloom"><g id="nodes-15" data-name="nodes"><line class="cls-5" x1="315.9" y1="233.83" x2="358.99" y2="311.57"/><circle class="cls-6" cx="313.93" cy="230.27" r="16.71"/><path class="cls-4" d="M328.75,222.54a16.71,16.71,0,1,0-7.09,22.55A16.73,16.73,0,0,0,328.75,222.54Zm-10,17.21a10.61,10.61,0,1,1,4.5-14.31A10.62,10.62,0,0,1,318.77,239.75Z"/></g></g></g></g><g id="center"><g id="nodes-16" data-name="nodes"><circle class="cls-3" cx="355.16" cy="365.22" r="70.18"/><path class="cls-4" d="M373.88,297.59A70.17,70.17,0,1,0,422.79,384,70.17,70.17,0,0,0,373.88,297.59Zm24.21,80a44.55,44.55,0,1,1-31-54.82A44.54,44.54,0,0,1,398.09,377.54Z"/></g></g></g></g></g></svg>